HIERARCHY
ROOT Hips
{
	OFFSET 0.000000 0.000000 0.000000
	CHANNELS 6 Xposition Yposition Zposition Zrotation Yrotation Xrotation 
	JOINT LHipJoint
	{
		OFFSET 0.000000 0.000000 0.000000
		CHANNELS 3 Zrotation Yrotation Xrotation
		JOINT LeftUpLeg
		{
			OFFSET 1.363060 -1.794630 0.839290
			CHANNELS 3 Zrotation Yrotation Xrotation
			JOINT LeftLeg
			{
				OFFSET 2.448110 -6.726130 0.000000
				CHANNELS 3 Zrotation Yrotation Xrotation
				JOINT LeftFoot
				{
					OFFSET 2.562200 -7.039590 0.000000
					CHANNELS 3 Zrotation Yrotation Xrotation
					JOINT LeftToeBase
					{
						OFFSET 0.157640 -0.433110 2.322550
						CHANNELS 3 Zrotation Yrotation Xrotation
						End Site
						{
							OFFSET 0.000000 0.000000 0.000000
						}
					}
				}
			}
		}
	}
	JOINT RHipJoint
	{
		OFFSET 0.000000 0.000000 0.000000
		CHANNELS 3 Zrotation Yrotation Xrotation
		JOINT RightUpLeg
		{
			OFFSET -1.305520 -1.794630 0.839290
			CHANNELS 3 Zrotation Yrotation Xrotation
			JOINT RightLeg
			{
				OFFSET -2.542530 -6.985550 0.000000
				CHANNELS 3 Zrotation Yrotation Xrotation
				JOINT RightFoot
				{
					OFFSET -2.568260 -7.056230 0.000000
					CHANNELS 3 Zrotation Yrotation Xrotation
					JOINT RightToeBase
					{
						OFFSET -0.164730 -0.452590 2.363150
						CHANNELS 3 Zrotation Yrotation Xrotation
						End Site
						{
							OFFSET 0.000000 0.000000 0.000000
						}
					}
				}
			}
		}
	}
	JOINT LowerBack
	{
		OFFSET 0.000000 0.000000 0.000000
		CHANNELS 3 Zrotation Yrotation Xrotation
		JOINT Spine
		{
			OFFSET 0.028270 2.035590 -0.193380
			CHANNELS 3 Zrotation Yrotation Xrotation
			JOINT Spine1
			{
				OFFSET 0.056720 2.048850 -0.042750
				CHANNELS 3 Zrotation Yrotation Xrotation
				JOINT Neck
				{
					OFFSET 0.000000 0.000000 0.000000
					CHANNELS 3 Zrotation Yrotation Xrotation
					JOINT Neck1
					{
						OFFSET -0.054170 1.746240 0.172020
						CHANNELS 3 Zrotation Yrotation Xrotation
						JOINT Head
						{
							OFFSET 0.104070 1.761360 -0.123970
							CHANNELS 3 Zrotation Yrotation Xrotation
							End Site
							{
								OFFSET 0.000000 0.000000 0.000000
							}
						}
					}
				}
				JOINT LeftShoulder
				{
					OFFSET 0.000000 0.000000 0.000000
					CHANNELS 3 Zrotation Yrotation Xrotation
					JOINT LeftArm
					{
						OFFSET 3.362410 1.200890 -0.311210
						CHANNELS 3 Zrotation Yrotation Xrotation
						JOINT LeftForeArm
						{
							OFFSET 4.983000 -0.000000 -0.000000
							CHANNELS 3 Zrotation Yrotation Xrotation
							JOINT LeftHand
							{
								OFFSET 3.483560 -0.000000 -0.000000
								CHANNELS 3 Zrotation Yrotation Xrotation
								JOINT LeftFingerBase
								{
									OFFSET 0.000000 0.000000 0.000000
									CHANNELS 3 Zrotation Yrotation Xrotation
									JOINT LeftHandIndex1
									{
										OFFSET 0.715260 -0.000000 -0.000000
										CHANNELS 3 Zrotation Yrotation Xrotation
										End Site
										{
											OFFSET 0.000000 0.000000 0.000000
										}
									}
								}
								JOINT LThumb
								{
									OFFSET 0.000000 0.000000 0.000000
									CHANNELS 3 Zrotation Yrotation Xrotation
									End Site
									{
										OFFSET 0.000000 0.000000 0.000000
									}
								}
							}
						}
					}
				}
				JOINT RightShoulder
				{
					OFFSET 0.000000 0.000000 0.000000
					CHANNELS 3 Zrotation Yrotation Xrotation
					JOINT RightArm
					{
						OFFSET -3.136600 1.374050 -0.404650
						CHANNELS 3 Zrotation Yrotation Xrotation
						JOINT RightForeArm
						{
							OFFSET -5.241900 -0.000000 -0.000000
							CHANNELS 3 Zrotation Yrotation Xrotation
							JOINT RightHand
							{
								OFFSET -3.444170 -0.000000 -0.000000
								CHANNELS 3 Zrotation Yrotation Xrotation
								JOINT RightFingerBase
								{
									OFFSET 0.000000 0.000000 0.000000
									CHANNELS 3 Zrotation Yrotation Xrotation
									JOINT RightHandIndex1
									{
										OFFSET -0.622530 -0.000000 -0.000000
										CHANNELS 3 Zrotation Yrotation Xrotation
										End Site
										{
											OFFSET 0.000000 0.000000 0.000000
										}
									}
								}
								JOINT RThumb
								{
									OFFSET 0.000000 0.000000 0.000000
									CHANNELS 3 Zrotation Yrotation Xrotation
									End Site
									{
										OFFSET 0.000000 0.000000 0.000000
									}
								}
							}
						}
					}
				}
			}
		}
	}
}
MOTION
Frames: 8
Frame Time: 0.008333
-0.667710 18.318580 5.640419 -1.872084 -3.849449 2.414078 0.860277 3.764991 3.582398 -12.612788 -11.254248 -4.271725 0.653498 6.649970 22.046361 -1.032198 10.387023 -20.143507 7.874800 -16.026400 -52.110500 -4.080098 -4.266296 2.215134 3.131573 1.822455 -1.477421 -0.001861 0.713313 1.394876 0.298971 -0.766803 5.418066 0.000000 0.000000 0.000000 4.872704 2.362192 -9.482574 -5.806499 2.215380 22.103933 -0.714760 1.558263 -12.275579 -1.145370 -3.025875 -24.918426 6.731039 -4.665968 28.990702 1.047600 -1.201800 9.427900 3.595683 -7.278554 0.249871 -90.720615 7.688706 35.610850 23.943171 -32.664403 -5.951359 0.644447 0.189862 3.526425 8.939417 -25.020933 -3.571200 -7.125000 0.000000 0.000000 -12.935200 4.987900 12.080200 -3.886276 9.104870 2.607067 93.755405 -9.835468 29.114950 -30.735637 38.835291 -8.502718 0.845813 -3.349123 14.853962 -7.407495 -35.705025 4.969800 7.125000 0.000000 0.000000 26.840300 -60.786000 -10.771900 
-0.668493 18.319069 5.640125 -1.904248 -3.842400 2.415342 0.858530 3.764672 3.581047 -12.573088 -11.293001 -4.266069 0.654534 6.654896 22.056942 -1.032737 10.393947 -20.156721 7.858700 -16.014300 -52.052100 -4.082491 -4.264989 2.211773 3.131367 1.822558 -1.477803 -0.001813 0.713245 1.394965 0.298996 -0.766776 5.417908 0.000000 0.000000 0.000000 4.924320 2.385409 -9.498030 -5.819252 2.243062 22.085475 -0.734631 1.567558 -12.258625 -1.090224 -3.030857 -24.926492 6.658370 -4.669494 29.017671 1.023200 -1.208300 9.433400 3.587900 -7.281513 0.251312 -90.697652 7.696917 35.669005 24.025138 -32.742165 -5.972662 0.630493 0.197608 3.755844 8.772459 -24.576275 -3.448600 -7.125000 0.000000 0.000000 -13.017800 5.431900 12.049400 -3.883635 9.110835 2.611543 93.814536 -9.868310 28.995110 -30.773204 38.872743 -8.523538 0.847003 -3.349666 14.888676 -7.380327 -35.738779 4.961500 7.125000 0.000000 0.000000 26.897200 -60.811000 -10.812700 
-0.669179 18.318874 5.639831 -1.898579 -3.840470 2.428314 0.847872 3.759856 3.576835 -12.562630 -11.311275 -4.273381 0.655550 6.658337 22.062346 -1.026687 10.372734 -20.160207 7.844200 -16.003500 -51.999500 -4.093613 -4.265545 2.205314 3.130427 1.822378 -1.478560 -0.001514 0.712830 1.394915 0.298908 -0.767004 5.417372 0.000000 0.000000 0.000000 4.971963 2.407584 -9.523092 -5.923802 2.271400 22.031931 -0.708482 1.578333 -12.220349 -0.995472 -3.005354 -24.857048 6.588345 -4.638530 28.959627 1.001400 -1.200300 9.410300 3.587021 -7.286286 0.252391 -90.677827 7.708500 35.720722 24.200337 -32.907051 -6.020467 0.600900 0.214810 4.239786 8.464137 -23.645879 -3.215800 -7.125000 0.000000 0.000000 -13.171300 6.354100 11.960900 -3.870247 9.119822 2.614753 93.850123 -9.905478 28.937124 -30.799409 38.894829 -8.535487 0.848622 -3.349336 14.900664 -7.367503 -35.730346 4.954600 7.125000 0.000000 0.000000 26.901600 -60.802100 -10.808900 
-0.669669 18.318286 5.639146 -1.909043 -3.855269 2.423751 0.846100 3.758804 3.574744 -12.544001 -11.265860 -4.284972 0.659154 6.661712 22.071222 -1.017763 10.324694 -20.125319 7.830700 -15.993300 -51.950400 -4.096520 -4.265438 2.202709 3.130380 1.822221 -1.479067 -0.001429 0.712508 1.394854 0.298835 -0.767255 5.417128 0.000000 0.000000 0.000000 4.999342 2.419106 -9.541339 -5.947429 2.283301 22.001175 -0.710446 1.581789 -12.191238 -0.969664 -2.986347 -24.759383 6.596350 -4.616778 28.885782 1.003200 -1.190700 9.381800 3.583156 -7.291436 0.251162 -90.674362 7.741378 35.734183 24.308090 -33.008313 -6.051411 0.583440 0.225019 4.496071 8.271273 -23.108206 -3.078900 -7.125000 0.000000 0.000000 -13.272100 6.887800 11.917100 -3.864001 9.125325 2.614673 93.859914 -9.926969 28.933760 -30.806772 38.899800 -8.541229 0.851228 -3.351143 14.886327 -7.334417 -35.793965 4.946200 7.125000 0.000000 0.000000 26.991200 -60.849700 -10.878800 
-0.669963 18.318090 5.638558 -1.930551 -3.869693 2.416021 0.855667 3.762346 3.578878 -12.532148 -11.250846 -4.283635 0.659357 6.660674 22.072500 -1.019795 10.334435 -20.132209 7.830100 -15.992800 -51.948300 -4.086375 -4.266027 2.209725 3.131262 1.822213 -1.478554 -0.001661 0.712686 1.394826 0.298893 -0.767232 5.417517 0.000000 0.000000 0.000000 4.982583 2.426414 -9.598759 -5.844632 2.283337 22.049733 -0.747060 1.583752 -12.164492 -1.028962 -2.994819 -24.673901 6.634077 -4.618531 28.792314 1.016800 -1.193600 9.354300 3.574709 -7.296035 0.243525 -90.681601 7.769742 35.766489 24.352007 -33.052326 -6.069039 0.581601 0.225604 4.499443 8.205782 -23.077129 -3.049400 -7.125000 0.000000 0.000000 -13.310900 6.924000 11.944400 -3.877789 9.123710 2.606899 93.842391 -9.918458 28.944928 -30.801842 38.893202 -8.541726 0.849695 -3.352535 14.865726 -7.365677 -35.845451 4.968800 7.125000 0.000000 0.000000 27.005900 -60.898900 -10.917000 
-0.670354 18.318188 5.637676 -1.917963 -3.875204 2.411650 0.856552 3.762526 3.580807 -12.555905 -11.297181 -4.258715 0.654559 6.657115 22.064629 -1.028624 10.400207 -20.210060 7.849900 -16.007800 -52.020400 -4.083609 -4.266932 2.212539 3.131495 1.822101 -1.478392 -0.001700 0.712662 1.394746 0.298879 -0.767317 5.417605 0.000000 0.000000 0.000000 4.958911 2.429676 -9.621463 -5.820632 2.285051 22.070168 -0.743136 1.587378 -12.154645 -1.034323 -2.992316 -24.630412 6.617975 -4.608239 28.734696 1.015600 -1.194000 9.337300 3.572151 -7.296579 0.240544 -90.691565 7.789090 35.779220 24.381087 -33.081635 -6.083178 0.582793 0.222420 4.542991 8.177023 -23.168129 -3.048200 -7.125000 0.000000 0.000000 -13.329900 6.840500 11.984600 -3.885918 9.121601 2.601141 93.819462 -9.890996 28.978169 -30.778313 38.871579 -8.530059 0.847148 -3.352667 14.841980 -7.414791 -35.823330 4.990400 7.125000 0.000000 0.000000 26.936000 -60.888300 -10.879500 
-0.670648 18.318090 5.636599 -1.887288 -3.875670 2.383527 0.851177 3.763292 3.585564 -12.587972 -11.303416 -4.223827 0.651758 6.650927 22.050275 -1.028218 10.409676 -20.235550 7.859200 -16.014700 -52.053800 -4.087511 -4.269440 2.215842 3.130291 1.822367 -1.477245 -0.001604 0.713336 1.394898 0.299063 -0.766669 5.417829 0.000000 0.000000 0.000000 4.947559 2.419120 -9.621051 -5.870248 2.276290 22.109890 -0.714938 1.583567 -12.164519 -1.023836 -2.973197 -24.608424 6.631380 -4.585420 28.669484 1.021700 -1.183900 9.321500 3.584854 -7.294062 0.236725 -90.719063 7.803478 35.717072 24.404405 -33.108720 -6.095276 0.583425 0.219213 4.607181 8.152916 -23.249523 -3.047800 -7.125000 0.000000 0.000000 -13.345700 6.765900 12.019500 -3.887743 9.118071 2.595003 93.798276 -9.874315 29.045608 -30.777578 38.872666 -8.527289 0.851958 -3.352280 14.817835 -7.356208 -35.818405 4.959700 7.125000 0.000000 0.000000 26.990600 -60.872600 -10.893300 
-0.670844 18.318090 5.636011 -1.908202 -3.873261 2.361296 0.870670 3.771327 3.597052 -12.586467 -11.324965 -4.193405 0.651270 6.642231 22.036558 -1.017429 10.369671 -20.240491 7.845500 -16.004400 -52.004200 -4.065608 -4.271304 2.232786 3.131870 1.822508 -1.475520 -0.002117 0.714095 1.394896 0.299263 -0.766302 5.418868 0.000000 0.000000 0.000000 4.873725 2.390908 -9.689216 -5.674548 2.228341 22.236385 -0.755720 1.567039 -12.162618 -1.102794 -2.966122 -24.599337 6.628668 -4.550091 28.569329 1.034000 -1.175800 9.301900 3.573021 -7.293228 0.222652 -90.787462 7.782682 35.623084 24.421872 -33.134878 -6.103880 0.581883 0.219434 4.627975 8.131967 -23.232157 -3.037900 -7.125000 0.000000 0.000000 -13.357400 6.784500 12.025600 -3.916568 9.109878 2.585614 93.735436 -9.873231 29.134200 -30.817310 38.902728 -8.545629 0.857439 -3.350969 14.790797 -7.300556 -35.878187 4.939500 7.125000 0.000000 0.000000 27.102800 -60.915200 -10.970100 
